<svg width="139" height="30" viewBox="0 0 139 30" fill="none" xmlns="http://www.w3.org/2000/svg">
<g id="Layer_1" clip-path="url(#clip0_730_173)">
<path id="Vector" d="M34.5103 21.2894C34.6916 21.9442 34.9897 22.5015 35.4107 22.9594C36.1519 23.7654 37.2195 24.1695 38.6093 24.1695C39.1673 24.1695 39.7132 24.1032 40.2449 23.9768C40.4544 23.927 40.6619 23.8711 40.8673 23.8007C41.4112 23.6163 41.9107 23.3655 42.3619 23.0506C42.513 22.9449 42.658 22.833 42.797 22.7129L42.0698 21.5028L41.6448 20.7922C41.6227 20.7611 41.6005 20.7362 41.5784 20.7093C41.5199 20.6347 41.4635 20.5705 41.4112 20.529C41.3749 20.5 41.3326 20.4772 41.2863 20.4627C41.24 20.4482 41.1876 20.4399 41.1292 20.4399C41.0446 20.4399 40.96 20.4669 40.8754 20.5166C40.8673 20.5207 40.8573 20.5228 40.8492 20.529C40.7565 20.5891 40.6498 20.6492 40.5289 20.7134C40.4846 20.7362 40.4343 20.7611 40.3839 20.7839C40.3315 20.8087 40.2751 20.8315 40.2167 20.8543C40.1805 20.8688 40.1482 20.8833 40.11 20.8978C40.0858 20.9061 40.0556 20.9103 40.0314 20.9165C39.8844 20.96 39.7152 20.9849 39.5097 20.9849C39.0847 20.9849 38.7483 20.8419 38.5046 20.5518C38.2609 20.2638 38.138 19.8639 38.138 19.3501V10.4448H42.4042V7.62689H38.138V2.45319H36.1459C35.9747 2.45319 35.8276 2.48634 35.7028 2.55264C35.6907 2.55886 35.6806 2.56714 35.6705 2.57336C35.6423 2.58994 35.6121 2.60858 35.5859 2.6293C35.5557 2.65417 35.5356 2.68939 35.5094 2.7184C35.4631 2.76812 35.4208 2.81992 35.3865 2.88208C35.3462 2.95667 35.312 3.03541 35.2898 3.12658L34.8709 5.45132L34.4801 7.61238L32.7579 7.90246L31.9099 8.04542V9.6139C31.9099 9.89155 31.9824 10.1008 32.1275 10.2396C32.2725 10.3785 32.4497 10.4489 32.6572 10.4489H34.2928V19.6256C34.2928 20.241 34.3673 20.7942 34.5063 21.2957L34.5103 21.2894Z" fill="white"/>
<path id="Vector_2" d="M120.755 19.8163C120.04 20.7839 119.234 21.5381 118.336 22.083C117.439 22.6259 116.473 22.8994 115.437 22.8994C114.037 22.8994 112.996 22.4622 112.313 21.5899C111.628 20.7176 111.288 19.5117 111.288 17.9723V7.49225H109.751V17.9723C109.751 18.9274 109.864 19.7852 110.087 20.5436C110.311 21.3019 110.643 21.9504 111.08 22.4871C111.517 23.0258 112.069 23.4381 112.73 23.722C113.393 24.0079 114.166 24.1509 115.053 24.1509C116.239 24.1509 117.315 23.8649 118.281 23.2931C119.248 22.7212 120.098 21.9649 120.835 21.018L120.98 23.4568C121.023 23.7427 121.178 23.8856 121.444 23.8856H122.292V7.49225H120.755V19.8184V19.8163Z" fill="white"/>
<path id="Vector_3" d="M75.4662 30C76.5659 30 77.559 29.855 78.4452 29.5628C79.3315 29.2707 80.0869 28.8853 80.7113 28.4004C81.3357 27.9177 81.8151 27.3624 82.1454 26.7367C82.4758 26.1109 82.643 25.4562 82.643 24.7766C82.643 24.041 82.4798 23.4505 82.1555 23.005C81.8292 22.5596 81.4022 22.2136 80.8744 21.967C80.3467 21.7204 79.7424 21.5464 79.0656 21.449C78.3868 21.3495 77.6959 21.2812 76.9909 21.2418C76.286 21.2045 75.5951 21.1672 74.9163 21.1341C74.2375 21.1009 73.6352 21.0263 73.1054 20.9124C72.5777 20.7963 72.1487 20.614 71.8244 20.3612C71.4981 20.1084 71.3369 19.7458 71.3369 19.2734C71.3369 18.9336 71.4678 18.5835 71.7297 18.2271C71.9916 17.8707 72.3461 17.5537 72.7952 17.2802C73.5325 17.5661 74.3603 17.7091 75.2788 17.7091C76.1228 17.7091 76.8943 17.5827 77.5932 17.3299C78.2922 17.0772 78.8904 16.7228 79.3879 16.267C79.8854 15.8112 80.2681 15.2621 80.5421 14.6198C80.814 13.9775 80.951 13.2606 80.951 12.4691C80.951 11.8765 80.8704 11.3192 80.7113 10.797C80.5501 10.2749 80.3205 9.80662 80.0224 9.38809L82.4576 9.20575C82.7558 9.15188 82.9068 9.0027 82.9068 8.76028V8.21535H78.8219C78.3405 7.89627 77.8067 7.64971 77.2206 7.47359C76.6324 7.29747 75.9878 7.21045 75.2829 7.21045C74.4288 7.21045 73.6513 7.33684 72.9524 7.58962C72.2534 7.8424 71.6511 8.19878 71.1496 8.66083C70.648 9.12287 70.2613 9.67402 69.9874 10.3163C69.7154 10.9586 69.5785 11.6755 69.5785 12.467C69.5785 13.4678 69.79 14.3401 70.211 15.0881C70.6339 15.836 71.2241 16.4348 71.9815 16.8845C71.6713 17.0606 71.3933 17.2574 71.1476 17.477C70.9018 17.6967 70.6924 17.9308 70.5232 18.1774C70.3519 18.4239 70.223 18.6746 70.1384 18.9274C70.0518 19.1802 70.0095 19.4205 70.0095 19.6526C70.0095 20.2783 70.1686 20.7673 70.4909 21.1196C70.8112 21.4718 71.2443 21.7411 71.7881 21.9276C70.8273 22.2799 70.0699 22.7647 69.514 23.3863C68.9581 24.0079 68.6821 24.7517 68.6821 25.6199C68.6821 26.2125 68.8251 26.774 69.1152 27.3002C69.4032 27.8265 69.8323 28.2906 70.4043 28.6926C70.9744 29.0925 71.6834 29.4116 72.5273 29.6478C73.3713 29.884 74.3543 30.0021 75.4742 30.0021L75.4662 30ZM71.2845 14.1805C71.0932 13.675 70.9965 13.1156 70.9965 12.5002C70.9965 11.8848 71.0932 11.3212 71.2845 10.8115C71.4759 10.2998 71.7559 9.86464 72.1245 9.50204C72.4931 9.13945 72.9423 8.85973 73.47 8.66083C73.9978 8.46399 74.6 8.36453 75.2728 8.36453C75.9455 8.36453 76.5458 8.46399 77.0755 8.66083C77.6033 8.85766 78.0525 9.13945 78.4211 9.50204C78.7897 9.86464 79.0717 10.3018 79.2691 10.8115C79.4665 11.3233 79.5652 11.8848 79.5652 12.5002C79.5652 13.1156 79.4685 13.675 79.2771 14.1805C79.0838 14.6861 78.8078 15.1191 78.4432 15.4817C78.0807 15.8443 77.6315 16.1282 77.0977 16.3312C76.5639 16.5343 75.9556 16.6358 75.2728 16.6358C74.59 16.6358 73.9998 16.5343 73.47 16.3312C72.9403 16.1282 72.4931 15.8464 72.1245 15.4817C71.7559 15.1191 71.4759 14.6861 71.2845 14.1805ZM70.3963 26.7781C70.1545 26.3658 70.0357 25.9182 70.0357 25.4355C70.0357 25.0625 70.1042 24.7124 70.2432 24.3891C70.3822 24.0638 70.5735 23.7675 70.8193 23.4982C71.065 23.2288 71.3591 22.9843 71.7015 22.7647C72.0419 22.5451 72.4166 22.3524 72.8234 22.1866C73.3774 22.2861 73.9716 22.3524 74.602 22.3855C75.2325 22.4187 75.8569 22.4539 76.4773 22.4933C77.0957 22.5326 77.6939 22.5844 78.272 22.6507C78.8481 22.717 79.3557 22.8372 79.7948 23.0133C80.2319 23.1895 80.5824 23.4339 80.8442 23.7468C81.1061 24.0597 81.237 24.4741 81.237 24.99C81.237 25.5494 81.09 26.0653 80.7959 26.5398C80.5018 27.0122 80.0969 27.4183 79.5793 27.7581C79.0616 28.0979 78.4533 28.3632 77.7543 28.5496C77.0554 28.7361 76.3001 28.8293 75.4883 28.8293C74.6121 28.8293 73.8386 28.7402 73.1659 28.5662C72.4931 28.3901 71.9251 28.1518 71.4598 27.8493C70.9945 27.5468 70.642 27.1904 70.4023 26.7781H70.3963Z" fill="white"/>
<path id="Vector_4" d="M92.8594 8.71055L92.9883 7.62277C92.7426 7.46945 92.4606 7.3617 92.1383 7.30162C91.818 7.24153 91.4917 7.21045 91.1614 7.21045C90.543 7.21045 89.979 7.30576 89.4714 7.49845C88.9638 7.69115 88.5046 7.96879 88.0937 8.33138C87.6828 8.69398 87.3182 9.13531 87.004 9.65744C86.6897 10.1796 86.4077 10.7742 86.162 11.4455L86.0492 8.00194C86.027 7.81546 85.9787 7.68286 85.9042 7.60619C85.8296 7.52953 85.7007 7.49017 85.5194 7.49017H84.7017V23.8877H86.2385V13.2751C86.4742 12.5395 86.732 11.889 87.016 11.3233C87.298 10.7577 87.6264 10.2852 88.001 9.90608C88.3737 9.52691 88.8027 9.2389 89.2821 9.04207C89.7635 8.84523 90.3134 8.74578 90.9318 8.74578C91.3588 8.74578 91.7032 8.78514 91.9651 8.86181C92.2269 8.93847 92.4223 8.97784 92.5492 8.97784C92.6983 8.97784 92.799 8.89081 92.8534 8.7147L92.8594 8.71055Z" fill="white"/>
<path id="Vector_5" d="M107.334 15.6806C107.334 14.396 107.171 13.2336 106.846 12.1956C106.52 11.1575 106.047 10.2707 105.428 9.53516C104.81 8.79962 104.049 8.2319 103.146 7.82994C102.244 7.43005 101.223 7.22906 100.078 7.22906C98.9343 7.22906 97.9131 7.43005 97.0107 7.82994C96.1083 8.2319 95.3449 8.79962 94.7205 9.53516C94.0961 10.2707 93.6207 11.1575 93.2944 12.1956C92.9681 13.2336 92.8049 14.396 92.8049 15.6806C92.8049 16.9652 92.9681 18.1255 93.2944 19.1574C93.6207 20.1892 94.0961 21.0739 94.7205 21.8095C95.3449 22.545 96.1083 23.1107 97.0107 23.5064C97.9131 23.9022 98.9343 24.099 100.078 24.099C101.223 24.099 102.244 23.9022 103.146 23.5064C104.049 23.1107 104.81 22.545 105.428 21.8095C106.047 21.0739 106.52 20.1892 106.846 19.1574C107.173 18.1255 107.334 16.9652 107.334 15.6806ZM105.412 18.6539C105.177 19.5386 104.822 20.2928 104.347 20.9185C103.871 21.5443 103.279 22.025 102.568 22.3606C101.857 22.6963 101.027 22.8641 100.076 22.8641C99.1257 22.8641 98.2958 22.6963 97.5848 22.3606C96.8737 22.025 96.2815 21.5443 95.8062 20.9185C95.3308 20.2928 94.9723 19.5365 94.7326 18.6539C94.4909 17.7692 94.372 16.7788 94.372 15.6806C94.372 14.5825 94.4909 13.6045 94.7326 12.7136C94.9723 11.8226 95.3308 11.0622 95.8062 10.4323C96.2815 9.80037 96.8737 9.31554 97.5848 8.97366C98.2958 8.63386 99.1257 8.46189 100.076 8.46189C101.027 8.46189 101.857 8.63179 102.568 8.97366C103.279 9.31346 103.871 9.80037 104.347 10.4323C104.822 11.0643 105.177 11.8247 105.412 12.7136C105.646 13.6024 105.765 14.5928 105.765 15.6806C105.765 16.7684 105.648 17.7712 105.412 18.6539Z" fill="white"/>
<path id="Vector_6" d="M137.358 9.30314C136.263 7.9087 134.738 7.21045 132.784 7.21045C131.61 7.21045 130.546 7.5026 129.595 8.08275C128.645 8.66497 127.817 9.45025 127.112 10.4386L126.969 7.90041C126.927 7.62484 126.771 7.48809 126.504 7.48809H125.656V29.683H127.192V21.6914C127.768 22.4829 128.451 23.0817 129.243 23.4878C130.033 23.8939 130.967 24.097 132.047 24.097C133.126 24.097 134.158 23.8773 135.018 23.4381C135.878 22.9988 136.603 22.398 137.195 21.6334C137.787 20.8709 138.237 19.9696 138.541 18.9316C138.845 17.8935 138.998 16.7767 138.998 15.577C138.998 12.7882 138.45 10.6934 137.356 9.29899L137.358 9.30314ZM137.07 18.5379C136.831 19.433 136.472 20.2017 135.997 20.844C135.521 21.4863 134.931 21.9836 134.226 22.3358C133.521 22.688 132.699 22.8642 131.759 22.8642C130.818 22.8642 129.948 22.6756 129.211 22.2964C128.473 21.9173 127.801 21.2563 127.192 20.3115V11.661C127.865 10.6623 128.629 9.88121 129.483 9.32178C130.337 8.76235 131.293 8.48056 132.351 8.48056C133.984 8.48056 135.239 9.0545 136.116 10.2024C136.992 11.3502 137.429 13.1446 137.429 15.5833C137.429 16.6607 137.308 17.6469 137.068 18.542L137.07 18.5379Z" fill="white"/>
<path id="Vector_7" d="M62.0069 11.0933C62.1438 11.2549 62.2566 11.4455 62.3533 11.6569C62.452 11.8744 62.5306 12.1168 62.5829 12.3883C62.6454 12.7073 62.6776 13.0637 62.6776 13.4553V23.9125H66.5228V13.4553C66.5228 12.4628 66.4 11.5823 66.1562 10.8136C66.1301 10.7348 66.0998 10.6602 66.0716 10.5836C65.836 9.92676 65.5177 9.35697 65.1088 8.88249C65.1028 8.8742 65.0967 8.86591 65.0907 8.85763L65.0867 8.85348C64.6355 8.33964 64.0795 7.94596 63.4249 7.67039C63.4027 7.6621 63.3846 7.64967 63.3625 7.64138C63.3463 7.63517 63.3282 7.63102 63.3121 7.62481C62.7562 7.40518 62.1317 7.28086 61.4469 7.24357C61.3039 7.23528 61.1609 7.22699 61.0118 7.22699C60.5022 7.22699 59.9966 7.285 59.4931 7.40311C58.9895 7.52121 58.5141 7.70147 58.069 7.94803C58.0186 7.97497 57.9723 8.00812 57.9219 8.03713C57.5674 8.24847 57.2371 8.50539 56.9309 8.81204C56.9007 8.84312 56.8685 8.87006 56.8383 8.90321C56.7275 9.01924 56.6227 9.14356 56.524 9.27409C56.3186 9.54138 56.1353 9.83767 55.9762 10.163C55.952 10.2106 55.9278 10.2562 55.9057 10.3039C55.8634 10.1816 55.811 10.0718 55.7627 9.95577C55.5371 9.41084 55.2571 8.92807 54.9066 8.52404C54.7656 8.36036 54.6125 8.2091 54.4514 8.06821C54.1452 7.803 53.7967 7.60409 53.41 7.46319C52.979 7.3078 52.4996 7.22699 51.9678 7.22699C51.6052 7.22699 51.2729 7.2705 50.9546 7.33473C50.8539 7.35545 50.7492 7.36788 50.6525 7.39482C50.5679 7.41968 50.4873 7.45283 50.4047 7.47977C50.0986 7.5813 49.8045 7.6994 49.5326 7.85065C49.4117 7.91695 49.2969 7.99362 49.1821 8.07028C49.0592 8.15109 48.9404 8.23604 48.8235 8.3272C48.7329 8.39765 48.6382 8.46395 48.5516 8.54062C48.4872 8.59656 48.4267 8.65665 48.3643 8.71466C48.1911 8.8742 48.0239 9.04203 47.8607 9.22022C47.7983 9.2886 47.7338 9.35076 47.6734 9.4212L47.4236 8.20289C47.335 7.92731 47.1859 7.73462 46.9845 7.61652C46.8334 7.5295 46.6542 7.48184 46.4427 7.48184H44.092V23.9125H47.9373V11.8848C47.9876 11.8247 48.04 11.7708 48.0924 11.7149C48.465 11.3067 48.8598 10.9731 49.2828 10.7245C49.3956 10.6582 49.5104 10.6022 49.6272 10.5504C49.6353 10.5463 49.6433 10.5421 49.6514 10.538C49.6856 10.5235 49.7239 10.5152 49.7582 10.5007C50.1026 10.3702 50.4652 10.2997 50.8459 10.2997C50.9989 10.2997 51.144 10.3121 51.2829 10.3287C51.3313 10.3349 51.3837 10.3391 51.43 10.3474C51.434 10.3474 51.438 10.3474 51.4421 10.3494C51.9839 10.4448 52.415 10.6789 52.7372 11.0518C53.1683 11.5533 53.3838 12.3551 53.3838 13.4532V23.9105H57.2452V13.4532C57.2452 13.0575 57.2895 12.697 57.3761 12.3696C57.4023 12.2743 57.4285 12.1811 57.4627 12.092C57.6077 11.6962 57.8071 11.3689 58.0609 11.1078C58.1757 10.9897 58.3006 10.884 58.4336 10.7908C58.5927 10.6789 58.7639 10.5815 58.9492 10.5069C59.2856 10.3681 59.6522 10.2997 60.047 10.2997C60.1457 10.2997 60.2424 10.3039 60.337 10.3121C61.0561 10.366 61.6141 10.625 62.0089 11.0933H62.0069Z" fill="white"/>
<path id="Vector_8" d="M8.93123 21.364V7.5668C8.93123 7.5668 7.60786 6.52875 5.87157 6.52875C3.21476 6.52875 0 8.0102 0 13.934C0 20.3405 5.2552 27.2878 13.2639 27.2878C13.2639 27.2878 8.92921 26.3512 8.92921 21.362L8.93123 21.364Z" fill="white"/>
<path id="Vector_9" d="M21.9173 13.646C17.7457 16.1241 10.301 20.5436 10.301 20.5436C10.301 20.5436 10.0895 22.2405 10.9577 23.7883C12.2871 26.1565 15.1393 28.2782 20.1266 25.3153C25.5208 22.112 28.7416 13.9568 24.7372 6.82092C24.7372 6.82092 26.115 11.1493 21.9152 13.6439L21.9173 13.646Z" fill="white"/>
<path id="Vector_10" d="M8.93321 5.91955C13.1047 8.39762 20.5474 12.8171 20.5474 12.8171C20.5474 12.8171 22.0823 12.1582 22.9525 10.6105C24.2819 8.24222 24.6424 4.64114 19.6531 1.67823C14.2609 -1.52503 5.78291 -0.317072 1.77856 6.81671C1.77856 6.81671 4.73348 3.4249 8.93321 5.91747V5.91955Z" fill="white"/>
</g>
<defs>
<clipPath id="clip0_730_173">
<rect width="139" height="30" fill="white"/>
</clipPath>
</defs>
</svg>
